<svg width="255" height="255" viewBox="0 0 255 255" fill="none" xmlns="http://www.w3.org/2000/svg">
<rect width="255" height="255" fill="white"/>
<path fill-rule="evenodd" clip-rule="evenodd" d="M185.833 102.658C188.133 102.658 190 104.38 190 106.504V160.329C190 192.18 162.019 218 127.499 218C92.9812 218 65 192.18 65 160.329V106.504C65 104.38 66.8651 102.658 69.1665 102.658H185.833ZM96.2496 38C108.907 38 119.166 47.4668 119.166 59.1458C119.166 70.8247 108.907 80.2916 96.2496 80.2916C83.5926 80.2916 73.333 70.8247 73.333 59.1458C73.333 47.4668 83.5926 38 96.2496 38ZM158.75 38C171.406 38 181.667 47.4668 181.667 59.1458C181.667 70.8247 171.406 80.2916 158.75 80.2916C146.093 80.2916 135.832 70.8247 135.832 59.1458C135.832 47.4668 146.093 38 158.75 38Z" fill="#3B0078"/>
</svg>
