<svg width="60" height="61" viewBox="0 0 60 61" fill="none" xmlns="http://www.w3.org/2000/svg">
<path fill-rule="evenodd" clip-rule="evenodd" d="M32 1L31.9978 1.06547C47.6349 2.09357 60 15.1028 60 31C60 47.5685 46.5685 61 30 61C13.4315 61 0 47.5685 0 31C0 15.4466 11.836 2.65765 26.9923 1.1489L27.0028 0.833425L32 1ZM26.0238 30.2037L26.8913 4.17702C13.4438 5.7186 3 17.1397 3 31C3 45.9117 15.0883 58 30 58C44.9117 58 57 45.9117 57 31C57 16.7263 45.924 5.03959 31.8978 4.06566L31.0137 30.5878L42.9468 45.9303L39 49L25 31L26.0238 30.2037Z" fill="#20B2AA"/>
</svg>
