<svg width="255" height="255" viewBox="0 0 255 255" fill="none" xmlns="http://www.w3.org/2000/svg">
<path d="M0 15C0 6.71573 6.71573 0 15 0H240C248.284 0 255 6.71573 255 15V240C255 248.284 248.284 255 240 255H15C6.71573 255 0 248.284 0 240V15Z" fill="white"/>
<path fill-rule="evenodd" clip-rule="evenodd" d="M181.979 65H69.1665C66.8651 65 65 66.8666 65 69.168V92.0843C65 94.3857 66.8651 96.2508 69.1665 96.2508H121.855C125.215 96.2508 127.194 100.023 125.283 102.786L69.5173 183.465C67.6072 186.228 69.5848 190 72.9446 190H185.834C188.135 190 190 188.135 190 185.834V162.917C190 160.616 188.135 158.751 185.834 158.751H132.119C128.744 158.751 126.77 154.947 128.711 152.187L185.387 71.5638C187.327 68.8036 185.354 65 181.979 65Z" fill="#3B0078"/>
</svg>
